<?xml version="1.0" encoding="utf-8"?>
<!-- Generator: Adobe Illustrator 21.0.2, SVG Export Plug-In . SVG Version: 6.00 Build 0)  -->
<svg version="1.1" id="Capa_1" xmlns="http://www.w3.org/2000/svg" xmlns:xlink="http://www.w3.org/1999/xlink" x="0px" y="0px"
	 width="245.8px" height="46px" viewBox="0 0 245.8 46" style="enable-background:new 0 0 245.8 46;" xml:space="preserve">
<style type="text/css">
	.st0{fill:#FFFFFF;}
</style>
<g id="XMLID_20_">
	<g id="XMLID_157_">
		<g id="XMLID_158_">
			<g>
				<path id="XMLID_41_" class="st0" d="M14.3,44.5c-2.8-1.2-5.3-2.9-7.4-5c-2.2-2.2-3.8-4.7-5-7.4C0.6,29.1,0,26.1,0,22.9
					c0-3.2,0.6-6.2,1.8-9.1C3,11,4.7,8.5,6.9,6.4c2.2-2.2,4.7-3.8,7.4-5c2.9-1.2,5.9-1.9,9.1-1.9s6.2,0.6,9.1,1.9
					c2.8,1.2,5.3,2.8,7.4,5c2.2,2.2,3.8,4.7,5,7.4c1.2,2.9,1.9,5.9,1.9,9.1c0,3.2-0.6,6.2-1.9,9.1c-1.2,2.8-2.8,5.3-5,7.4
					c-2.2,2.2-4.7,3.8-7.4,5c-2.9,1.2-5.9,1.8-9.1,1.8S17.2,45.7,14.3,44.5z"/>
				<path id="XMLID_40_" class="st0" d="M92.5,24.7c3.4-0.1,6.3-1.3,8.8-3.7c2.5-2.5,3.8-5.5,3.8-9c-0.1-3.4-1.3-6.4-3.8-8.8
					c-2.5-2.4-5.4-3.6-8.8-3.6H75.7C75.4-0.5,75-0.3,75,0v45.8c0,0.3,0.4,0.1,0.7,0.1h27.9c0.2,0,0.3,0.1,0.4-0.1
					c0.1-0.2,0.1-0.2,0-0.3L92.5,24.7z"/>
				<path id="XMLID_38_" class="st0" d="M146.3,44.5c-2.8-1.2-5.3-2.9-7.4-5c-2.2-2.2-3.8-4.7-5-7.4c-1.2-2.9-1.8-5.9-1.8-9.1
					c0-3.2,0.6-6.2,1.8-9.1c1.2-2.8,2.9-5.3,5-7.4c2.2-2.2,4.7-3.8,7.4-5c2.9-1.2,5.9-1.9,9.1-1.9s6.2,0.6,9.1,1.9
					c2.8,1.2,5.3,2.8,7.4,5c2.2,2.2,3.8,4.7,5,7.4c1.2,2.9,1.9,5.9,1.9,9.1c0,3.2-0.6,6.2-1.9,9.1c-1.2,2.8-2.8,5.3-5,7.4
					c-2.2,2.2-4.7,3.8-7.4,5c-2.9,1.2-5.9,1.8-9.1,1.8S149.2,45.7,146.3,44.5z"/>
			</g>
		</g>
	</g>
	<path id="XMLID_287_" class="st0" d="M244.7,12.4c-0.9-2.6-2.3-4.9-4.2-6.8c-1.9-2-4.2-3.4-6.8-4.4C231.8,0.4,230,0,227.6,0l0,0h0
		l0,0l0,0c-2.3,0-4.3,0.4-6.2,1.1c-2.6,1-4.9,2.4-6.8,4.4c-1.9,2-3.3,4.2-4.2,6.8c-1.8,5.4-1.1,11.2-1.1,16.7c0,5.3,0,10.6,0,15.9
		c0,0.3,0,0.7,0.3,0.8c0.2,0.1,0.4,0.1,0.7,0.1c5.8,0,11.6,0,17.4,0c5.9,0,11.6,0,17.4,0c0.2,0,0.4,0,0.6-0.1
		c0.2-0.2,0.2-0.5,0.2-0.8c0-5.3,0-10.6,0-15.9C245.8,23.5,246.5,17.7,244.7,12.4z"/>
</g>
</svg>
