<?xml version="1.0" encoding="utf-8"?>
<!-- Generator: Adobe Illustrator 21.0.2, SVG Export Plug-In . SVG Version: 6.00 Build 0)  -->
<svg version="1.1" id="Capa_1" xmlns="http://www.w3.org/2000/svg" xmlns:xlink="http://www.w3.org/1999/xlink" x="0px" y="0px"
	 width="38px" height="51px" viewBox="0 0 38 51" style="enable-background:new 0 0 38 51;" xml:space="preserve">
<style type="text/css">
	.st0{fill:#F2F1F0;}
	.st1{filter:url(#Adobe_OpacityMaskFilter);}
	.st2{fill:#FFFFFF;}
	.st3{mask:url(#d);fill:#F2F1F0;}
	.st4{fill:#1A1919;}
</style>
<path class="st0" d="M20,42h-5v-0.7h5c3.2,0,5.2-1.6,5.2-4.2c0-2.5-2-4.2-5-4.2l-5.3,0V16h5.4v0.7h-4.7v15.4l4.6,0
	c3.4,0,5.7,2,5.7,4.9C26,40.1,23.7,42,20,42"/>
<g>
	<defs>
		<filter id="Adobe_OpacityMaskFilter" filterUnits="userSpaceOnUse" x="0" y="0.3" width="33.9" height="45.4">
			<feColorMatrix  type="matrix" values="1 0 0 0 0  0 1 0 0 0  0 0 1 0 0  0 0 0 1 0"/>
		</filter>
	</defs>
	<mask maskUnits="userSpaceOnUse" x="0" y="0.3" width="33.9" height="45.4" id="d">
		<g class="st1">
			<path id="c" class="st2" d="M0,0.4l33.9-0.1l0.1,45.4L0,45.8L0,0.4z"/>
		</g>
	</mask>
	<path class="st3" d="M18.2,45.7L0,45.8L0,0.4l18.1,0c8.6,0,14.2,4.8,14.3,11.9c0,4.2-2.3,7.7-6.3,9.8c4.9,2.1,7.8,6.1,7.8,10.9
		C33.9,40.6,27.7,45.7,18.2,45.7"/>
</g>
<path class="st4" d="M17,37l-5,0l0-0.7l5,0c3.2,0,5.2-1.6,5.2-4.2c0-2.5-2-4.2-5-4.2l-5.3,0L12,11l5.4,0l0,0.7l-4.7,0l0,15.4l4.6,0
	c3.4,0,5.7,2,5.7,4.9C23,35.1,20.7,37,17,37"/>
</svg>
