<?xml version="1.0" encoding="UTF-8"?>
<svg xmlns="http://www.w3.org/2000/svg" xmlns:xlink="http://www.w3.org/1999/xlink" width="810pt" height="809.999993pt" viewBox="0 0 810 809.999993" version="1.2">
<defs>
<clipPath id="clip1">
  <path d="M 360.964844 508.722656 L 448.714844 508.722656 L 448.714844 596.472656 L 360.964844 596.472656 Z M 360.964844 508.722656 "/>
</clipPath>
<clipPath id="clip2">
  <path d="M 359.824219 374.363281 L 449.824219 374.363281 L 449.824219 464.363281 L 359.824219 464.363281 Z M 359.824219 374.363281 "/>
</clipPath>
<clipPath id="clip3">
  <path d="M 360.835938 242.03125 L 449.335938 242.03125 L 449.335938 330.53125 L 360.835938 330.53125 Z M 360.835938 242.03125 "/>
</clipPath>
<clipPath id="clip4">
  <path d="M 360.902344 640.800781 L 449.402344 640.800781 L 449.402344 729.300781 L 360.902344 729.300781 Z M 360.902344 640.800781 "/>
</clipPath>
<clipPath id="clip5">
  <path d="M 359 109.875 L 451 109.875 L 451 198.375 L 359 198.375 Z M 359 109.875 "/>
</clipPath>
</defs>
<g id="surface1">
<g clip-path="url(#clip1)" clip-rule="nonzero">
<path style=" stroke:none;fill-rule:nonzero;fill:rgb(62.748718%,62.748718%,62.748718%);fill-opacity:1;" d="M 440.734375 508.722656 L 368.941406 508.722656 C 364.535156 508.722656 360.964844 512.292969 360.964844 516.699219 L 360.964844 588.496094 C 360.964844 592.902344 364.535156 596.472656 368.941406 596.472656 L 408.828125 596.472656 L 408.828125 560.574219 L 396.859375 560.574219 L 396.859375 548.609375 L 408.828125 548.609375 L 408.828125 542.183594 C 408.828125 530.015625 414.753906 524.675781 424.867188 524.675781 C 429.707031 524.675781 432.269531 525.035156 433.480469 525.199219 L 433.480469 536.640625 L 426.585938 536.640625 C 422.292969 536.640625 420.792969 538.90625 420.792969 543.496094 L 420.792969 548.609375 L 433.375 548.609375 L 431.664062 560.574219 L 420.792969 560.574219 L 420.792969 596.472656 L 440.734375 596.472656 C 445.144531 596.472656 448.714844 592.902344 448.714844 588.496094 L 448.714844 516.699219 C 448.714844 512.292969 445.140625 508.722656 440.734375 508.722656 Z M 440.734375 508.722656 "/>
</g>
<g clip-path="url(#clip2)" clip-rule="nonzero">
<path style=" stroke:none;fill-rule:nonzero;fill:rgb(62.748718%,62.748718%,62.748718%);fill-opacity:1;" d="M 386.066406 374.363281 C 371.597656 374.363281 359.824219 386.144531 359.824219 400.621094 L 359.824219 438.121094 C 359.824219 452.59375 371.605469 464.363281 386.082031 464.363281 L 423.582031 464.363281 C 438.054688 464.363281 449.824219 452.582031 449.824219 438.105469 L 449.824219 400.605469 C 449.824219 386.132812 438.042969 374.363281 423.566406 374.363281 Z M 431.074219 389.363281 C 433.144531 389.363281 434.824219 391.042969 434.824219 393.113281 C 434.824219 395.183594 433.144531 396.863281 431.074219 396.863281 C 429.003906 396.863281 427.324219 395.183594 427.324219 393.113281 C 427.324219 391.042969 429.003906 389.363281 431.074219 389.363281 Z M 404.824219 396.863281 C 417.234375 396.863281 427.324219 406.953125 427.324219 419.363281 C 427.324219 431.773438 417.234375 441.863281 404.824219 441.863281 C 392.414062 441.863281 382.324219 431.773438 382.324219 419.363281 C 382.324219 406.953125 392.414062 396.863281 404.824219 396.863281 Z M 404.824219 404.363281 C 403.839844 404.363281 402.863281 404.460938 401.898438 404.652344 C 400.933594 404.84375 399.996094 405.128906 399.085938 405.503906 C 398.175781 405.882812 397.308594 406.34375 396.492188 406.890625 C 395.671875 407.4375 394.914062 408.058594 394.21875 408.757812 C 393.523438 409.453125 392.898438 410.210938 392.351562 411.03125 C 391.804688 411.847656 391.34375 412.714844 390.964844 413.625 C 390.589844 414.53125 390.304688 415.472656 390.113281 416.4375 C 389.921875 417.402344 389.824219 418.378906 389.824219 419.363281 C 389.824219 420.347656 389.921875 421.324219 390.113281 422.289062 C 390.304688 423.253906 390.589844 424.195312 390.964844 425.105469 C 391.34375 426.011719 391.804688 426.878906 392.351562 427.695312 C 392.898438 428.515625 393.523438 429.273438 394.21875 429.96875 C 394.914062 430.667969 395.671875 431.289062 396.492188 431.835938 C 397.308594 432.382812 398.175781 432.84375 399.085938 433.222656 C 399.996094 433.597656 400.933594 433.882812 401.898438 434.074219 C 402.863281 434.265625 403.839844 434.363281 404.824219 434.363281 C 405.808594 434.363281 406.785156 434.265625 407.75 434.074219 C 408.71875 433.882812 409.65625 433.597656 410.566406 433.222656 C 411.476562 432.84375 412.339844 432.382812 413.15625 431.835938 C 413.976562 431.289062 414.734375 430.667969 415.429688 429.96875 C 416.128906 429.273438 416.75 428.515625 417.296875 427.695312 C 417.84375 426.878906 418.304688 426.011719 418.683594 425.105469 C 419.058594 424.195312 419.34375 423.253906 419.535156 422.289062 C 419.726562 421.324219 419.824219 420.347656 419.824219 419.363281 C 419.824219 418.378906 419.726562 417.402344 419.535156 416.4375 C 419.34375 415.472656 419.058594 414.53125 418.683594 413.625 C 418.304688 412.714844 417.84375 411.847656 417.296875 411.03125 C 416.75 410.210938 416.128906 409.453125 415.429688 408.757812 C 414.734375 408.058594 413.976562 407.4375 413.15625 406.890625 C 412.339844 406.34375 411.476562 405.882812 410.566406 405.503906 C 409.65625 405.128906 408.71875 404.84375 407.75 404.652344 C 406.785156 404.460938 405.808594 404.363281 404.824219 404.363281 Z M 404.824219 404.363281 "/>
</g>
<g clip-path="url(#clip3)" clip-rule="nonzero">
<path style=" stroke:none;fill-rule:nonzero;fill:rgb(62.748718%,62.748718%,62.748718%);fill-opacity:1;" d="M 405.085938 242.03125 C 380.648438 242.03125 360.835938 261.84375 360.835938 286.28125 C 360.835938 294.582031 363.167969 302.320312 367.144531 308.960938 L 361.234375 330.53125 L 383.265625 324.746094 C 389.707031 328.410156 397.144531 330.53125 405.085938 330.53125 C 429.523438 330.53125 449.335938 310.714844 449.335938 286.28125 C 449.335938 261.84375 429.523438 242.03125 405.085938 242.03125 Z M 389.941406 265.636719 C 390.660156 265.636719 391.398438 265.632812 392.035156 265.667969 C 392.824219 265.683594 393.683594 265.742188 394.507812 267.5625 C 395.484375 269.722656 397.613281 275.144531 397.882812 275.691406 C 398.15625 276.242188 398.351562 276.890625 397.972656 277.609375 C 397.609375 278.34375 397.421875 278.792969 396.890625 279.445312 C 396.339844 280.078125 395.738281 280.867188 395.242188 281.347656 C 394.691406 281.894531 394.125 282.496094 394.757812 283.59375 C 395.394531 284.6875 397.597656 288.277344 400.851562 291.175781 C 405.039062 294.917969 408.570312 296.066406 409.667969 296.613281 C 410.765625 297.164062 411.402344 297.078125 412.035156 296.339844 C 412.691406 295.621094 414.777344 293.15625 415.515625 292.054688 C 416.234375 290.957031 416.96875 291.148438 417.964844 291.507812 C 418.976562 291.871094 424.363281 294.523438 425.460938 295.074219 C 426.5625 295.621094 427.28125 295.894531 427.558594 296.339844 C 427.839844 296.800781 427.84375 298.996094 426.929688 301.554688 C 426.019531 304.109375 421.546875 306.582031 419.542969 306.753906 C 417.515625 306.941406 415.628906 307.664062 406.382812 304.027344 C 395.230469 299.632812 388.199219 288.210938 387.652344 287.476562 C 387.101562 286.757812 383.183594 281.535156 383.183594 276.152344 C 383.183594 270.75 386.015625 268.105469 387.007812 267.007812 C 388.019531 265.90625 389.203125 265.636719 389.941406 265.636719 Z M 389.941406 265.636719 "/>
</g>
<g clip-path="url(#clip4)" clip-rule="nonzero">
<path style=" stroke:none;fill-rule:nonzero;fill:rgb(62.748718%,62.748718%,62.748718%);fill-opacity:1;" d="M 441.355469 640.800781 L 368.945312 640.800781 C 364.5 640.800781 360.902344 644.402344 360.902344 648.847656 L 360.902344 721.257812 C 360.902344 725.703125 364.5 729.300781 368.945312 729.300781 L 441.355469 729.300781 C 445.800781 729.300781 449.402344 725.703125 449.402344 721.257812 L 449.402344 648.847656 C 449.402344 644.402344 445.800781 640.800781 441.355469 640.800781 Z M 388.875 713.210938 L 377.007812 713.210938 L 377.007812 675.027344 L 388.875 675.027344 Z M 382.820312 669.570312 C 378.996094 669.570312 375.902344 666.46875 375.902344 662.648438 C 375.902344 658.832031 379 655.734375 382.820312 655.734375 C 386.632812 655.734375 389.734375 658.835938 389.734375 662.648438 C 389.734375 666.46875 386.632812 669.570312 382.820312 669.570312 Z M 433.328125 713.210938 L 421.46875 713.210938 L 421.46875 694.644531 C 421.46875 690.214844 421.386719 684.519531 415.300781 684.519531 C 409.125 684.519531 408.175781 689.339844 408.175781 694.320312 L 408.175781 713.210938 L 396.316406 713.210938 L 396.316406 675.027344 L 407.703125 675.027344 L 407.703125 680.246094 L 407.863281 680.246094 C 409.449219 677.246094 413.316406 674.078125 419.089844 674.078125 C 431.105469 674.078125 433.328125 681.988281 433.328125 692.269531 Z M 433.328125 713.210938 "/>
</g>
<g clip-path="url(#clip5)" clip-rule="nonzero">
<path style=" stroke:none;fill-rule:nonzero;fill:rgb(62.748718%,62.748718%,62.748718%);fill-opacity:1;" d="M 419.664062 198.027344 C 419.515625 198.066406 419.363281 198.085938 419.207031 198.085938 L 418.871094 197.777344 L 418.871094 195.136719 C 418.871094 192.679688 418.910156 188.960938 418.910156 184.707031 C 418.960938 182.160156 418.441406 179.738281 417.351562 177.4375 C 426.761719 175.734375 437.304688 170.636719 437.304688 152.390625 C 437.34375 149.984375 436.96875 147.640625 436.175781 145.367188 C 435.386719 143.09375 434.230469 141.023438 432.710938 139.160156 C 433.28125 137.019531 433.492188 134.84375 433.339844 132.632812 C 433.1875 130.421875 432.683594 128.292969 431.828125 126.25 C 431.589844 125.648438 431.160156 125.246094 430.542969 125.042969 C 429.992188 124.890625 429.425781 124.820312 428.851562 124.832031 C 426.613281 125.03125 424.445312 125.542969 422.351562 126.363281 C 420.257812 127.183594 418.320312 128.28125 416.539062 129.65625 C 412.773438 128.71875 408.953125 128.238281 405.074219 128.214844 C 401.195312 128.222656 397.371094 128.699219 393.609375 129.648438 C 391.824219 128.269531 389.882812 127.171875 387.785156 126.351562 C 385.691406 125.53125 383.519531 125.023438 381.277344 124.824219 C 380.703125 124.808594 380.140625 124.878906 379.585938 125.035156 C 378.96875 125.238281 378.542969 125.640625 378.304688 126.246094 C 377.449219 128.289062 376.945312 130.417969 376.796875 132.628906 C 376.648438 134.839844 376.863281 137.015625 377.4375 139.15625 C 375.914062 141.019531 374.757812 143.085938 373.96875 145.363281 C 373.175781 147.636719 372.800781 149.980469 372.839844 152.386719 C 372.839844 170.625 383.375 175.746094 392.761719 177.464844 C 392.242188 178.519531 391.859375 179.625 391.617188 180.773438 C 390.480469 181.191406 389.3125 181.40625 388.105469 181.417969 C 387.269531 181.4375 386.460938 181.308594 385.675781 181.027344 C 384.890625 180.746094 384.179688 180.332031 383.546875 179.789062 C 383.421875 179.625 383.277344 179.488281 383.105469 179.375 C 382.824219 179.066406 382.558594 178.738281 382.308594 178.402344 L 382.226562 178.300781 C 382.203125 178.261719 382.179688 178.226562 382.152344 178.191406 L 381.804688 177.742188 C 381.695312 177.609375 381.589844 177.472656 381.492188 177.328125 C 381.023438 176.507812 380.464844 175.753906 379.816406 175.066406 C 379.171875 174.378906 378.453125 173.773438 377.664062 173.253906 C 376.878906 172.734375 376.039062 172.3125 375.152344 171.992188 C 374.265625 171.667969 373.355469 171.453125 372.417969 171.34375 C 370.226562 171.34375 368.773438 172.117188 368.339844 173.535156 C 367.652344 175.746094 370.046875 177.394531 371.199219 178.160156 C 372.203125 178.851562 373.0625 179.6875 373.777344 180.671875 C 374.492188 181.65625 375.027344 182.734375 375.375 183.902344 C 375.625 184.554688 375.925781 185.179688 376.277344 185.785156 C 376.628906 186.386719 377.023438 186.960938 377.464844 187.5 C 377.90625 188.042969 378.386719 188.546875 378.910156 189.007812 C 379.429688 189.472656 379.984375 189.894531 380.570312 190.269531 C 381.160156 190.644531 381.773438 190.972656 382.410156 191.25 C 383.050781 191.527344 383.707031 191.753906 384.382812 191.925781 C 385.058594 192.097656 385.742188 192.21875 386.4375 192.28125 C 387.132812 192.347656 387.828125 192.355469 388.523438 192.308594 C 389.433594 192.308594 390.339844 192.246094 391.246094 192.128906 L 391.292969 197.792969 L 390.925781 198.089844 C 390.796875 198.089844 390.644531 198.089844 390.777344 198.121094 C 389.9375 197.84375 389.109375 197.535156 388.285156 197.207031 C 387.464844 196.878906 386.652344 196.523438 385.851562 196.144531 C 385.050781 195.769531 384.261719 195.367188 383.484375 194.945312 C 382.707031 194.519531 381.945312 194.074219 381.195312 193.605469 C 380.441406 193.136719 379.707031 192.644531 378.984375 192.132812 C 378.261719 191.621094 377.554688 191.085938 376.863281 190.535156 C 376.171875 189.980469 375.496094 189.40625 374.839844 188.8125 C 374.179688 188.21875 373.542969 187.605469 372.921875 186.976562 C 372.296875 186.34375 371.695312 185.695312 371.113281 185.027344 C 370.527344 184.363281 369.964844 183.679688 369.421875 182.976562 C 368.875 182.277344 368.351562 181.5625 367.851562 180.832031 C 367.351562 180.101562 366.871094 179.355469 366.410156 178.597656 C 365.953125 177.839844 365.515625 177.066406 365.105469 176.28125 C 364.691406 175.5 364.300781 174.703125 363.933594 173.894531 C 363.566406 173.085938 363.226562 172.269531 362.90625 171.441406 C 362.589844 170.613281 362.292969 169.777344 362.023438 168.933594 C 361.753906 168.089844 361.511719 167.238281 361.289062 166.378906 C 361.070312 165.519531 360.875 164.652344 360.707031 163.78125 C 360.539062 162.910156 360.394531 162.035156 360.277344 161.15625 C 360.15625 160.277344 360.066406 159.394531 360 158.511719 C 359.933594 157.625 359.894531 156.742188 359.878906 155.851562 C 359.863281 154.964844 359.875 154.078125 359.914062 153.195312 C 359.949219 152.308594 360.015625 151.421875 360.101562 150.539062 C 360.191406 149.65625 360.308594 148.777344 360.449219 147.902344 C 360.589844 147.027344 360.753906 146.15625 360.945312 145.289062 C 361.140625 144.421875 361.355469 143.5625 361.597656 142.710938 C 361.839844 141.855469 362.105469 141.011719 362.398438 140.175781 C 362.691406 139.335938 363.003906 138.507812 363.347656 137.6875 C 363.6875 136.871094 364.050781 136.0625 364.4375 135.265625 C 364.824219 134.464844 365.234375 133.679688 365.667969 132.90625 C 366.101562 132.132812 366.558594 131.375 367.035156 130.628906 C 367.511719 129.878906 368.011719 129.148438 368.535156 128.429688 C 369.054688 127.714844 369.59375 127.011719 370.15625 126.328125 C 370.71875 125.640625 371.300781 124.972656 371.902344 124.324219 C 372.503906 123.671875 373.121094 123.039062 373.757812 122.421875 C 374.398438 121.808594 375.054688 121.214844 375.726562 120.636719 C 376.398438 120.0625 377.089844 119.503906 377.792969 118.96875 C 378.5 118.433594 379.21875 117.917969 379.953125 117.425781 C 380.691406 116.933594 381.441406 116.460938 382.203125 116.011719 C 382.964844 115.5625 383.742188 115.136719 384.53125 114.734375 C 385.316406 114.332031 386.117188 113.949219 386.925781 113.59375 C 387.738281 113.238281 388.558594 112.90625 389.386719 112.597656 C 390.21875 112.289062 391.054688 112.003906 391.902344 111.746094 C 392.75 111.488281 393.601562 111.253906 394.460938 111.042969 C 395.320312 110.835938 396.1875 110.652344 397.058594 110.496094 C 397.929688 110.335938 398.804688 110.207031 399.683594 110.097656 C 400.558594 109.992188 401.441406 109.914062 402.324219 109.859375 C 403.207031 109.804688 404.089844 109.773438 404.976562 109.773438 C 405.863281 109.769531 406.746094 109.792969 407.628906 109.84375 C 408.511719 109.894531 409.394531 109.96875 410.273438 110.070312 C 411.152344 110.171875 412.027344 110.300781 412.898438 110.453125 C 413.769531 110.605469 414.636719 110.785156 415.5 110.988281 C 416.359375 111.191406 417.214844 111.421875 418.0625 111.675781 C 418.910156 111.929688 419.75 112.207031 420.582031 112.511719 C 421.414062 112.816406 422.234375 113.144531 423.046875 113.496094 C 423.859375 113.847656 424.660156 114.222656 425.449219 114.621094 C 426.242188 115.019531 427.019531 115.445312 427.785156 115.886719 C 428.550781 116.332031 429.300781 116.800781 430.039062 117.289062 C 430.777344 117.777344 431.5 118.289062 432.210938 118.820312 C 432.917969 119.351562 433.609375 119.90625 434.285156 120.476562 C 434.960938 121.050781 435.621094 121.640625 436.261719 122.253906 C 436.902344 122.863281 437.527344 123.496094 438.128906 124.140625 C 438.734375 124.789062 439.320312 125.457031 439.886719 126.136719 C 440.449219 126.820312 440.996094 127.519531 441.519531 128.234375 C 442.046875 128.945312 442.546875 129.675781 443.03125 130.421875 C 443.511719 131.164062 443.972656 131.921875 444.410156 132.691406 C 444.847656 133.464844 445.261719 134.246094 445.652344 135.042969 C 446.046875 135.839844 446.414062 136.644531 446.757812 137.460938 C 447.101562 138.277344 447.421875 139.105469 447.71875 139.941406 C 448.015625 140.777344 448.285156 141.621094 448.53125 142.472656 C 448.78125 143.324219 449 144.183594 449.199219 145.050781 C 449.394531 145.914062 449.566406 146.785156 449.710938 147.660156 C 449.855469 148.535156 449.976562 149.414062 450.070312 150.296875 C 450.164062 151.175781 450.230469 152.0625 450.273438 152.949219 C 450.316406 153.832031 450.332031 154.71875 450.324219 155.605469 C 450.3125 156.496094 450.277344 157.378906 450.21875 158.265625 C 450.15625 159.152344 450.066406 160.03125 449.953125 160.914062 C 449.839844 161.792969 449.703125 162.667969 449.539062 163.539062 C 449.375 164.410156 449.183594 165.277344 448.96875 166.136719 C 448.753906 167 448.515625 167.851562 448.25 168.699219 C 447.984375 169.546875 447.695312 170.382812 447.378906 171.210938 C 447.066406 172.042969 446.726562 172.859375 446.367188 173.671875 C 446.003906 174.480469 445.617188 175.277344 445.207031 176.066406 C 444.800781 176.851562 444.367188 177.625 443.914062 178.386719 C 443.460938 179.148438 442.984375 179.894531 442.484375 180.628906 C 441.988281 181.363281 441.46875 182.082031 440.929688 182.785156 C 440.390625 183.488281 439.828125 184.171875 439.25 184.84375 C 438.667969 185.511719 438.070312 186.164062 437.449219 186.800781 C 436.832031 187.433594 436.195312 188.050781 435.542969 188.648438 C 434.886719 189.242188 434.214844 189.820312 433.527344 190.378906 C 432.839844 190.9375 432.136719 191.472656 431.414062 191.988281 C 430.695312 192.507812 429.960938 193 429.214844 193.472656 C 428.464844 193.945312 427.703125 194.398438 426.929688 194.824219 C 426.152344 195.253906 425.367188 195.660156 424.566406 196.039062 C 423.769531 196.421875 422.960938 196.78125 422.140625 197.113281 C 421.320312 197.449219 420.492188 197.757812 419.652344 198.042969 Z M 419.664062 198.027344 "/>
</g>
</g>
</svg>
