<svg id="Layer_1" data-name="Layer 1" xmlns="http://www.w3.org/2000/svg" viewBox="0 0 358.76 424.86"><defs><style>.cls-1,.cls-2{fill:none;stroke:#000;stroke-linejoin:round;}.cls-1{stroke-linecap:round;stroke-width:5px;}.cls-2{stroke-linecap:square;stroke-width:4px;}</style></defs><path d="M553.85,309.25l.34,278.18q0,35.15-51.6,34.73-6,0-11.3-.57-40.31-4-40.3-35.8l.32-261.62,0-16.56L343,306.52l-1.72,279.54q.35,54.5,38.23,89.64,17.83,16.53,46.07,25.53,31.77,10.14,76.68,10.71,84.86,1.08,121.37-34.33t36.86-89.91l1.61-262.27.11-17.27Z" transform="translate(-341.27 -306.52)"/><path class="cls-1" d="M662.09,325.43l-72.9.73.34,278.18q0,35.14-51.6,34.74-35.59-.29-46.64-17.49-40.31-4-40.3-35.8l.32-261.62-73-.73L376.61,603q.33,54.49,38.23,89.64a97.18,97.18,0,0,0,10.73,8.61q38.26,26.68,112,27.62,84.87,1.1,121.38-34.33t36.86-89.91l1.71-279.54Z" transform="translate(-341.27 -306.52)"/><path class="cls-1" d="M491.29,621.59q-40.31-4-40.3-35.8l.32-261.62,35.36.36-.34,278.18Q486.33,613.86,491.29,621.59Z" transform="translate(-341.27 -306.52)"/><line class="cls-2" x1="144.5" y1="17.56" x2="111.06" y2="3.83"/><line class="cls-1" x1="356.26" y1="18" x2="319.56" y2="4.09"/></svg>