<?xml version="1.0" standalone="no"?>
<!DOCTYPE svg PUBLIC "-//W3C//DTD SVG 20010904//EN"
 "http://www.w3.org/TR/2001/REC-SVG-20010904/DTD/svg10.dtd">
<svg version="1.0" xmlns="http://www.w3.org/2000/svg"
 width="905.000000pt" height="1280.000000pt" viewBox="0 0 905.000000 1280.000000"
 preserveAspectRatio="xMidYMid meet">
<metadata>
Created by potrace 1.15, written by Peter Selinger 2001-2017
</metadata>
<g transform="translate(0.000000,1280.000000) scale(0.100000,-0.100000)"
fill="#ffffff" stroke="none">
<path d="M7149 10347 c-97 -35 -171 -88 -289 -207 -163 -162 -326 -423 -433
-695 -20 -50 -144 -457 -277 -905 -163 -552 -251 -838 -275 -885 -43 -86 -111
-177 -155 -210 -68 -50 -147 -26 -199 59 -19 30 -57 56 -82 56 -17 0 -49 -83
-49 -131 0 -29 9 -64 27 -98 21 -44 34 -57 71 -73 91 -41 213 0 304 102 139
153 238 400 344 855 25 110 50 206 54 214 4 8 6 -17 4 -55 -18 -337 -30 -523
-64 -934 -21 -261 -41 -531 -44 -600 -21 -417 -140 -811 -274 -905 -46 -32
-80 -36 -187 -20 -59 8 -97 -4 -120 -38 -8 -13 -28 -73 -43 -133 -35 -138 -65
-193 -115 -218 -54 -26 -141 -25 -192 3 -46 25 -68 26 -84 7 -30 -36 46 -84
178 -112 106 -22 174 -18 271 17 47 17 102 36 124 42 24 7 49 25 65 46 14 18
64 58 111 88 98 63 131 92 170 149 35 50 49 99 99 345 85 417 101 562 101 915
0 718 94 1583 235 2154 21 86 69 210 81 210 3 0 3 -4 -1 -9 -3 -5 -7 -43 -9
-83 -2 -51 -14 -106 -40 -183 -53 -157 -63 -206 -85 -425 -67 -646 -95 -1420
-72 -1980 6 -151 14 -403 18 -560 5 -248 4 -298 -12 -384 -14 -77 -16 -124
-11 -215 7 -128 -3 -228 -36 -356 -11 -44 -24 -127 -29 -185 -23 -289 -53
-462 -116 -670 -108 -357 -264 -651 -443 -831 -159 -161 -306 -202 -452 -128
-52 27 -70 58 -67 116 l3 48 -53 0 c-61 -1 -86 -21 -96 -79 -29 -151 156 -270
355 -227 29 6 55 10 57 8 8 -8 -113 -91 -186 -128 -97 -48 -256 -101 -391
-130 -87 -19 -137 -23 -295 -23 l-190 -1 -109 38 c-94 32 -315 143 -382 191
-12 8 -58 70 -103 137 -120 180 -145 288 -103 440 39 139 95 197 202 206 96 9
143 -39 104 -107 -23 -39 -12 -60 42 -78 54 -18 97 -8 133 33 34 39 46 87 38
147 -10 77 -79 137 -187 164 -54 14 -75 14 -133 5 -38 -6 -85 -20 -105 -30
-130 -66 -232 -274 -233 -472 0 -159 40 -275 147 -415 112 -148 320 -282 514
-332 291 -75 477 -68 776 29 145 47 301 109 361 145 24 14 88 67 141 117 71
67 127 108 202 151 178 100 266 163 332 238 64 73 150 164 113 120 -19 -23
-19 -23 0 -16 11 4 23 12 27 18 14 20 8 -50 -8 -105 -32 -109 -117 -219 -300
-389 -289 -269 -740 -538 -1041 -622 -71 -20 -102 -22 -328 -23 -162 0 -280 5
-335 13 -206 33 -379 96 -504 186 -81 57 -218 202 -281 296 -61 92 -153 268
-195 374 -30 77 -30 80 -20 160 16 112 48 199 131 350 39 71 77 147 85 169 22
62 17 130 -13 200 -15 34 -29 89 -32 122 -6 57 -7 60 -34 63 -38 5 -62 -19
-83 -81 l-17 -51 -19 48 c-15 40 -17 57 -8 109 15 97 51 158 141 239 74 68 78
73 62 90 -9 10 -23 18 -30 18 -45 0 -255 -191 -330 -300 -52 -77 -94 -170
-121 -269 -22 -84 -25 -116 -26 -261 0 -149 2 -175 27 -266 14 -56 29 -134 32
-175 l6 -74 -25 40 c-49 76 -107 283 -159 564 -30 165 -32 190 -31 396 0 253
21 403 80 583 40 124 135 312 203 402 61 81 198 213 271 261 30 20 147 85 260
144 320 168 416 239 471 351 26 51 33 82 37 142 4 72 2 79 -20 100 -29 27 -56
21 -116 -27 -38 -31 -84 -44 -91 -26 -3 6 37 37 88 71 166 110 192 147 251
356 23 83 47 142 81 200 62 105 68 132 37 165 -23 25 -25 25 -130 19 -205 -12
-369 -51 -552 -132 -55 -24 -101 -42 -103 -40 -6 5 19 67 53 133 47 89 43 133
-11 133 -20 0 -327 -218 -456 -325 -87 -71 -155 -162 -229 -307 -33 -64 -65
-120 -72 -124 -19 -12 0 72 37 160 19 44 76 189 126 321 173 455 282 688 423
908 104 164 178 314 207 423 23 86 29 249 19 514 l-6 135 -26 3 c-60 7 -156
-78 -278 -246 -41 -56 -75 -100 -77 -98 -2 2 1 70 7 152 16 243 13 399 -10
490 -64 252 -248 445 -465 485 -33 6 -95 9 -138 7 -64 -4 -82 -9 -102 -28 -14
-13 -25 -33 -25 -45 0 -19 7 -23 46 -29 25 -3 73 -20 106 -38 240 -128 367
-548 368 -1212 0 -168 45 97 -375 -2221 l-156 -860 5 -275 c6 -302 -3 -298
-28 13 -18 207 -21 608 -6 673 5 22 84 470 176 995 l166 954 -6 120 c-13 234
-55 354 -160 461 -64 66 -126 94 -205 94 -56 0 -119 -37 -153 -89 -28 -43 -29
-51 -25 -124 5 -99 25 -131 84 -135 34 -3 44 1 61 23 13 16 26 24 33 19 8 -4
9 -3 5 4 -12 20 74 5 90 -15 59 -74 74 -153 74 -382 0 -287 -23 -486 -125
-1121 -117 -725 -130 -857 -122 -1275 6 -318 21 -469 72 -737 44 -227 83 -364
160 -562 91 -238 154 -437 125 -396 -31 44 -134 263 -183 390 -173 452 -249
843 -277 1420 -16 334 -51 684 -86 860 -29 142 -100 273 -182 338 -74 58 -120
75 -217 80 -109 5 -178 -17 -248 -78 -68 -60 -91 -116 -90 -224 1 -75 4 -91
21 -109 29 -28 47 -11 62 56 17 78 32 97 77 92 31 -4 34 -3 13 4 -22 8 -22 9
-4 10 11 1 33 -13 50 -30 56 -59 119 -74 200 -45 22 7 45 11 53 8 8 -3 11 0 7
7 -5 7 -1 9 8 5 9 -3 13 -10 10 -15 -3 -5 1 -6 9 -3 24 9 65 -52 91 -134 26
-83 48 -244 96 -722 81 -788 186 -1273 361 -1661 27 -60 49 -118 49 -129 0
-22 97 -203 179 -335 118 -188 273 -376 457 -556 109 -105 147 -134 364 -268
63 -39 129 -82 145 -96 l30 -25 -60 21 c-97 34 -313 143 -410 207 -49 32 -155
110 -235 172 -175 136 -258 193 -370 253 -125 67 -210 90 -318 85 -102 -4
-158 -26 -225 -91 -53 -52 -78 -103 -84 -176 -6 -66 9 -110 56 -164 40 -45 86
-61 152 -52 44 6 53 12 75 45 29 44 27 63 -14 111 -58 70 -22 137 84 159 120
25 213 -11 484 -187 273 -177 421 -264 608 -358 386 -193 528 -228 906 -227
353 1 707 36 986 98 255 57 592 190 825 326 252 147 478 247 652 290 127 31
309 31 416 0 93 -26 183 -70 230 -112 68 -60 109 -219 73 -288 -23 -44 -82
-72 -151 -72 -59 0 -79 -16 -55 -45 16 -20 138 -20 183 -1 44 18 102 87 121
144 22 63 20 177 -3 227 -25 55 -193 216 -261 250 -30 16 -120 51 -198 79 -79
28 -144 56 -145 61 -1 6 23 20 53 32 53 21 90 53 90 77 0 19 -103 143 -134
162 -37 22 -147 30 -217 15 -136 -29 -254 -111 -715 -498 -518 -434 -785 -586
-1049 -598 -69 -4 -82 -2 -55 5 19 5 42 7 50 4 8 -3 11 -2 8 2 -4 3 45 24 110
46 498 166 942 538 1235 1032 172 292 288 627 332 959 30 235 17 655 -25 797
-6 19 -15 89 -20 155 -6 76 -19 151 -35 205 -25 82 -47 280 -26 235 5 -11 7
-31 4 -45 -3 -17 -2 -21 4 -12 7 8 18 -20 37 -87 40 -142 83 -235 170 -366 87
-129 107 -147 130 -113 21 30 20 76 -4 176 -23 95 -26 157 -8 146 8 -5 9 -2 5
9 -3 10 -4 17 -2 17 8 0 41 -74 105 -234 l64 -158 70 -60 c88 -74 217 -160
274 -182 25 -9 71 -16 112 -16 61 0 70 2 70 18 0 10 -21 34 -46 53 -58 43
-110 114 -134 181 -10 29 -26 116 -34 193 -9 77 -23 165 -31 195 -8 30 -12 56
-10 59 3 2 5 -1 5 -7 0 -7 8 -12 18 -12 14 0 15 2 2 10 -8 5 -10 10 -5 10 6 0
24 -9 40 -20 18 -12 47 -20 71 -20 60 0 64 16 43 174 -39 291 -87 419 -216
569 -107 126 -172 221 -247 367 -218 424 -330 807 -391 1335 -27 229 -38 548
-26 715 6 83 11 180 11 215 0 45 9 94 31 160 17 53 41 149 54 213 22 109 23
112 19 47 -3 -38 -13 -115 -22 -170 -13 -74 -17 -155 -16 -310 0 -185 4 -226
27 -347 96 -492 308 -797 565 -816 89 -6 150 11 158 43 7 29 -1 45 -25 45 -40
0 -126 34 -153 60 -33 33 -37 77 -12 135 17 42 12 103 -14 146 -8 15 -64 56
-130 95 -227 136 -297 243 -323 497 -18 181 2 536 42 752 48 257 146 471 260
569 85 72 238 102 322 61 73 -35 136 -164 144 -300 9 -136 -24 -254 -102 -366
-25 -35 -64 -92 -87 -127 -41 -59 -50 -66 -163 -124 -127 -65 -185 -101 -249
-155 -58 -48 -76 -81 -76 -135 0 -48 0 -48 34 -48 73 0 319 104 416 175 109
80 259 263 329 402 73 144 101 358 66 493 -41 157 -142 293 -257 346 -52 23
-79 29 -158 31 -81 3 -105 0 -161 -20z m-526 -3241 c-3 -6 -2 -8 2 -3 14 12
165 -360 271 -668 37 -110 48 -158 52 -222 3 -46 0 -83 -5 -83 -22 0 -52 34
-82 94 -66 135 -188 556 -240 829 -25 126 -25 144 -6 98 8 -18 12 -38 8 -45z
m-3125 -438 c2 -15 -4 -41 -13 -59 -9 -17 -153 -167 -319 -333 -323 -323 -356
-364 -396 -497 -11 -36 -30 -74 -41 -85 l-22 -19 7 50 c23 163 87 310 228 520
113 171 202 281 239 301 16 8 51 34 79 59 60 54 102 76 155 86 65 11 80 7 83
-23z"/>
<path d="M3468 6683 c7 -3 16 -2 19 1 4 3 -2 6 -13 5 -11 0 -14 -3 -6 -6z"/>
<path d="M5700 10342 c-199 -67 -325 -203 -336 -364 -3 -33 -9 -68 -14 -78
-14 -26 -12 -94 5 -194 18 -104 52 -197 102 -280 50 -83 199 -230 304 -299
146 -97 341 -180 383 -164 22 9 47 67 36 87 -4 8 -31 23 -58 33 -28 9 -90 43
-139 76 -49 32 -106 64 -126 70 -79 27 -204 171 -257 299 -41 97 -46 141 -22
194 17 40 29 49 120 97 131 69 137 76 137 161 0 61 -3 72 -35 116 -63 88 -39
162 57 177 22 4 48 16 58 27 18 19 18 22 2 38 -26 25 -146 27 -217 4z"/>
<path d="M2400 10275 c-204 -46 -384 -146 -516 -288 -157 -168 -185 -350 -85
-552 74 -150 181 -233 312 -243 80 -5 122 13 146 64 l17 35 -33 32 -32 32 -33
-39 c-31 -36 -36 -39 -75 -33 -23 3 -53 12 -66 21 -61 40 -76 146 -36 254 17
45 22 75 19 111 -4 41 -2 48 10 43 10 -3 13 -1 8 6 -5 8 1 8 24 0 17 -6 52 -8
77 -5 62 7 97 44 128 134 51 152 63 164 218 217 75 26 83 27 166 17 333 -41
646 -222 750 -436 19 -38 49 -90 67 -115 78 -109 128 -241 160 -420 29 -160
26 -570 -5 -770 -51 -333 -115 -548 -236 -799 -41 -84 -75 -160 -75 -167 0
-17 35 -18 96 -3 51 13 74 39 122 134 149 298 281 1209 224 1535 -51 287 -152
546 -279 714 -29 38 -50 72 -47 75 9 9 90 -89 146 -177 212 -333 291 -445 376
-530 122 -123 172 -147 307 -147 90 0 105 3 155 28 70 36 98 62 121 112 62
133 -57 320 -159 249 -18 -13 -22 -25 -22 -73 0 -86 -12 -96 -107 -95 -141 1
-192 41 -476 370 -356 414 -622 620 -893 690 -125 33 -369 43 -474 19z"/>
<path d="M3514 5500 c-145 -38 -275 -121 -415 -267 -238 -247 -381 -593 -383
-928 -1 -112 2 -139 22 -197 28 -80 52 -92 52 -25 0 74 31 308 56 430 31 145
70 261 134 392 58 119 117 195 225 288 181 157 352 220 508 187 52 -10 60 -16
72 -43 7 -18 15 -70 19 -117 6 -95 21 -124 77 -153 38 -20 39 -31 4 -59 -45
-35 -28 -58 45 -58 71 0 166 54 196 112 13 24 15 52 12 123 -8 179 -87 272
-273 321 -75 20 -264 17 -351 -6z"/>
<path d="M6680 5178 c0 -159 16 -276 60 -447 73 -280 235 -593 371 -715 55
-51 167 -121 241 -152 75 -31 116 -29 226 12 76 28 100 51 83 81 -6 12 -20 17
-48 15 -40 -2 -50 4 -163 96 -29 24 -66 46 -81 49 l-27 5 20 56 c41 116 -16
206 -188 295 -131 67 -182 116 -244 237 -28 55 -59 131 -69 168 -27 102 -160
441 -173 442 -5 0 -8 -64 -8 -142z"/>
</g>
</svg>
