<?xml version="1.0" standalone="no"?>
<!DOCTYPE svg PUBLIC "-//W3C//DTD SVG 20010904//EN"
 "http://www.w3.org/TR/2001/REC-SVG-20010904/DTD/svg10.dtd">
<svg version="1.0" xmlns="http://www.w3.org/2000/svg"
 width="743.000000pt" height="1280.000000pt" viewBox="0 0 743.000000 1280.000000"
 preserveAspectRatio="xMidYMid meet">
<metadata>
Created by potrace 1.15, written by Peter Selinger 2001-2017
</metadata>
<g transform="translate(0.000000,1280.000000) scale(0.100000,-0.100000)"
fill="#ffffff" stroke="none">
<path d="M5830 12745 c-69 -29 -507 -210 -975 -403 -987 -407 -2335 -963
-2710 -1117 -143 -59 -267 -111 -275 -115 -19 -11 -401 -1274 -386 -1278 6 -1
157 20 336 48 179 28 613 95 965 150 352 55 933 145 1290 200 358 56 836 130
1064 165 227 35 416 66 418 69 6 5 623 2314 623 2328 0 4 -51 7 -112 7 -113
-1 -113 -1 -238 -54z"/>
<path d="M2160 9240 c-124 -16 -643 -79 -1155 -139 -512 -61 -947 -114 -968
-117 l-38 -6 4 -2916 c3 -3204 -1 -2981 63 -3372 185 -1144 787 -1951 1759
-2358 398 -167 811 -261 1380 -313 188 -18 845 -18 1030 -1 908 85 1551 315
2085 746 102 82 321 302 404 406 365 459 591 1044 670 1740 34 298 36 451 36
3408 0 2660 -2 2952 -16 2952 -8 0 -144 -16 -302 -35 -338 -41 -1342 -161
-1762 -210 -162 -20 -312 -38 -332 -41 l-38 -6 0 -2616 c0 -1690 -4 -2665 -10
-2752 -55 -724 -280 -1087 -760 -1226 -299 -87 -722 -82 -1015 13 -376 121
-587 375 -684 824 -58 271 -55 71 -58 3192 l-3 2857 -33 -1 c-17 -1 -133 -14
-257 -29z"/>
</g>
</svg>
