<?xml version="1.0" standalone="no"?>
<!DOCTYPE svg PUBLIC "-//W3C//DTD SVG 20010904//EN"
 "http://www.w3.org/TR/2001/REC-SVG-20010904/DTD/svg10.dtd">
<svg version="1.0" xmlns="http://www.w3.org/2000/svg"
 width="980.000000pt" height="255.000000pt" viewBox="0 0 980.000000 255.000000"
 preserveAspectRatio="xMidYMid meet">

<g transform="translate(0.000000,255.000000) scale(0.100000,-0.100000)"
fill="#000000" stroke="none">
<path d="M7383 1895 c-84 -18 -182 -68 -232 -117 -59 -59 -84 -131 -85 -243
-1 -81 2 -96 29 -149 44 -87 148 -170 360 -285 127 -69 205 -139 205 -184 0
-42 -16 -64 -56 -77 -53 -18 -121 -7 -279 46 -89 29 -144 43 -153 38 -19 -12
-94 -192 -96 -228 -1 -27 4 -32 59 -53 101 -40 280 -82 377 -89 238 -17 392
82 444 286 51 198 -31 345 -261 469 -120 65 -230 137 -273 177 -37 35 -43 47
-40 74 5 55 44 75 141 74 81 -1 112 -9 248 -68 l37 -15 73 97 c40 53 76 99 81
100 4 2 8 14 8 28 0 25 -20 37 -137 83 -125 49 -319 64 -450 36z"/>
<path d="M777 1583 c-16 -728 -14 -744 108 -867 44 -44 76 -70 91 -73 5 -1 43
-13 84 -26 220 -74 541 -52 690 47 58 38 123 127 144 194 15 52 17 115 19 539
l2 481 -566 6 -566 6 -6 -307z m415 110 c3 -16 4 -208 2 -428 -2 -380 -1 -402
17 -431 25 -41 69 -59 144 -59 68 0 128 24 147 58 10 17 13 122 13 444 0 331
3 425 13 435 10 10 15 10 22 -2 6 -9 9 -186 8 -455 l-3 -440 -24 -27 c-37 -42
-108 -61 -205 -56 -90 5 -133 23 -159 68 -15 24 -17 83 -19 461 -2 239 1 440
5 447 14 21 34 13 39 -15z"/>
<path d="M2147 1866 c-4 -10 -7 -71 -7 -137 l0 -119 134 0 c97 0 137 -4 143
-12 4 -7 8 -238 8 -513 l0 -500 145 3 c80 2 149 7 153 11 4 5 8 234 7 511 l-1
502 138 -3 c76 -2 144 0 151 4 15 10 17 243 2 252 -5 3 -202 8 -438 12 -400 5
-429 5 -435 -11z"/>
<path d="M3873 1869 c-22 -8 -45 -39 -95 -129 -14 -25 -35 -61 -47 -80 -12
-19 -31 -55 -43 -80 -11 -25 -32 -63 -46 -84 -23 -37 -25 -39 -38 -21 -11 14
-14 63 -14 207 l0 188 -150 0 -150 0 0 -507 c0 -280 -3 -564 -6 -633 -3 -69
-2 -130 3 -136 6 -9 51 -10 158 -5 l150 6 5 105 c5 95 8 111 39 170 18 36 38
75 44 88 11 24 32 29 44 10 8 -14 103 -240 136 -325 l20 -53 164 0 c153 0 165
1 158 18 -4 9 -20 53 -37 97 -16 44 -37 95 -45 113 -8 18 -47 115 -87 215 -41
100 -85 208 -100 239 -29 64 -32 85 -13 113 8 11 35 61 62 110 56 106 137 248
144 255 8 7 61 114 61 123 0 10 -289 7 -317 -4z"/>
<path d="M4810 1858 c-5 -13 -28 -97 -51 -188 -35 -141 -80 -310 -145 -550
-17 -61 -110 -423 -125 -484 -5 -21 -8 -40 -7 -41 10 -9 298 -9 308 1 6 6 17
44 26 85 8 41 19 77 23 82 4 4 79 6 167 5 l159 -3 21 -85 20 -85 163 1 c89 1
164 4 166 6 4 4 -77 336 -185 753 -80 311 -87 341 -105 415 -29 120 -7 110
-231 110 -192 0 -195 0 -204 -22z"/>
<path d="M5870 1229 l0 -651 143 7 c78 4 145 10 149 14 4 4 9 110 10 236 l3
230 31 3 c17 2 35 -3 41 -10 9 -13 89 -200 161 -378 l39 -95 159 3 c87 2 161
5 163 7 3 4 -41 115 -143 360 -40 96 -52 135 -45 148 5 9 16 17 23 17 25 0
121 105 151 165 29 57 30 66 30 185 0 114 -2 130 -26 180 -55 116 -160 196
-288 220 -29 5 -177 10 -327 10 l-274 0 0 -651z"/>
<path d="M8316 1872 c-7 -11 -9 -1272 -2 -1279 10 -10 280 -2 293 9 9 8 13 70
15 252 l3 241 141 3 c109 2 144 -1 152 -11 8 -9 13 -95 14 -257 l3 -244 150 3
c83 1 155 7 160 12 10 11 9 1169 -1 1242 l-6 38 -151 -3 -152 -3 0 -245 c0
-135 -4 -251 -8 -257 -10 -15 -273 -18 -296 -4 -11 7 -14 56 -16 242 -1 129
-3 242 -4 252 -1 15 -15 17 -145 17 -80 0 -147 -4 -150 -8z"/>
</g>
</svg>
