<?xml version="1.0" encoding="utf-8"?>
<!-- Generator: Adobe Illustrator 21.0.2, SVG Export Plug-In . SVG Version: 6.00 Build 0)  -->
<svg version="1.1" id="Capa_1" xmlns="http://www.w3.org/2000/svg" xmlns:xlink="http://www.w3.org/1999/xlink" x="0px" y="0px"
	 width="38px" height="51px" viewBox="0 0 38 51" style="enable-background:new 0 0 38 51;" xml:space="preserve">
<style type="text/css">
	.st0{fill:#F2F1F0;}
</style>
<g transform="translate(3 5)">
	<path class="st0" d="M0.9,44.9h17.9c9.2,0,15.4-4.9,15.4-12.2c0-4.6-2.8-8.4-7.6-10.5L25.8,22l0.7-0.4c3.9-2,6.1-5.3,6.1-9.3
		c0-6.8-5.6-11.4-13.9-11.4H0.9V44.9z M18.8,45.6H0.2V0.2h18.5c8.8,0,14.6,4.9,14.6,12.1c0,4-2.1,7.5-5.8,9.6
		c4.6,2.2,7.4,6.2,7.4,10.8C34.9,40.5,28.4,45.6,18.8,45.6L18.8,45.6z"/>
</g>
<path class="st0" d="M20,42h-5v-0.7h5c3.2,0,5.2-1.6,5.2-4.2c0-2.5-2-4.2-5-4.2h-5.3V16h5.4v0.7h-4.7v15.4h4.6c3.4,0,5.7,2,5.7,4.9
	C26,40.1,23.7,42,20,42"/>
</svg>
