<?xml version="1.0" encoding="utf-8"?>
<!-- Generator: Adobe Illustrator 23.0.5, SVG Export Plug-In . SVG Version: 6.00 Build 0)  -->
<svg version="1.1" id="Capa_1" xmlns="http://www.w3.org/2000/svg" xmlns:xlink="http://www.w3.org/1999/xlink" x="0px" y="0px"
	 width="220px" height="40px" viewBox="0 0 220 40" style="enable-background:new 0 0 220 40;" xml:space="preserve">
<style type="text/css">
	.st0{fill:url(#XMLID_2_);}
	.st1{fill:url(#XMLID_3_);}
	.st2{fill:url(#XMLID_4_);}
	.st3{fill:url(#XMLID_5_);}
	.st4{fill:none;stroke:#1A1A1A;stroke-width:0.9689;stroke-miterlimit:10;}
	.st5{fill:url(#XMLID_6_);}
</style>
<g id="XMLID_182_">
	<g id="XMLID_201_">
		<linearGradient id="XMLID_2_" gradientUnits="userSpaceOnUse" x1="8.1229" y1="19.928" x2="203.4342" y2="19.928">
			<stop  offset="0" style="stop-color:#EF4900"/>
			<stop  offset="1" style="stop-color:#643C68"/>
		</linearGradient>
		<path id="XMLID_279_" class="st0" d="M57.6,34.5c-1.9-0.8-3.6-1.9-5-3.4c-1.5-1.5-2.6-3.1-3.4-5c-0.8-2-1.2-4-1.2-6.1
			c0-2.1,0.4-4.2,1.2-6.1c0.8-1.9,1.9-3.6,3.4-5c1.5-1.5,3.1-2.6,5-3.4c2-0.8,4-1.3,6.1-1.3s4.2,0.4,6.1,1.3c1.9,0.8,3.6,1.9,5,3.4
			c1.5,1.5,2.6,3.1,3.4,5c0.8,2,1.3,4,1.3,6.1c0,2.1-0.4,4.2-1.3,6.1c-0.8,1.9-1.9,3.6-3.4,5c-1.5,1.5-3.1,2.6-5,3.4
			c-2,0.8-4,1.2-6.1,1.2S59.6,35.3,57.6,34.5z"/>
		<linearGradient id="XMLID_3_" gradientUnits="userSpaceOnUse" x1="9.0723" y1="20.005" x2="202.7089" y2="20.005">
			<stop  offset="0" style="stop-color:#EF4900"/>
			<stop  offset="1" style="stop-color:#643C68"/>
		</linearGradient>
		<path id="XMLID_278_" class="st1" d="M110.4,21.1c2.3-0.1,4.3-0.9,5.9-2.5c1.7-1.7,2.6-3.7,2.5-6.1c0-2.3-0.9-4.2-2.5-5.8
			c-1.7-1.6-3.6-2.3-5.9-2.3H99c-0.2,0-1-0.1-1,0.1v30.9c0,0.2,0.8,0.2,1,0.2h18.8c0.1,0,0.2,0,0.3-0.1c0.1-0.1,0.1-0.2,0-0.3
			L110.4,21.1z"/>
		<linearGradient id="XMLID_4_" gradientUnits="userSpaceOnUse" x1="8.1229" y1="19.928" x2="203.4342" y2="19.928">
			<stop  offset="0" style="stop-color:#EF4900"/>
			<stop  offset="1" style="stop-color:#643C68"/>
		</linearGradient>
		<path id="XMLID_276_" class="st2" d="M146.7,34.5c-1.9-0.8-3.6-1.9-5-3.4c-1.5-1.5-2.6-3.1-3.4-5c-0.8-2-1.2-4-1.2-6.1
			c0-2.1,0.4-4.2,1.2-6.1c0.8-1.9,1.9-3.6,3.4-5c1.5-1.5,3.1-2.6,5-3.4c2-0.8,4-1.3,6.1-1.3s4.2,0.4,6.1,1.3c1.9,0.8,3.6,1.9,5,3.4
			c1.5,1.5,2.6,3.1,3.4,5c0.8,2,1.3,4,1.3,6.1c0,2.1-0.4,4.2-1.3,6.1c-0.8,1.9-1.9,3.6-3.4,5c-1.5,1.5-3.1,2.6-5,3.4
			c-2,0.8-4,1.2-6.1,1.2S148.7,35.3,146.7,34.5z"/>
	</g>
	<g id="XMLID_198_">
		<linearGradient id="XMLID_5_" gradientUnits="userSpaceOnUse" x1="8.1229" y1="20.1263" x2="203.4342" y2="20.1263">
			<stop  offset="0" style="stop-color:#EF4900"/>
			<stop  offset="1" style="stop-color:#643C68"/>
		</linearGradient>
		<path id="XMLID_199_" class="st3" d="M18.9,35.9H6V4.4h12.8c6.1,0,10.1,3.4,10.1,8.3c0,2.9-1.6,5.4-4.5,6.8
			c3.5,1.4,5.5,4.2,5.5,7.6C30,32.3,25.6,35.9,18.9,35.9z"/>
	</g>
	<path id="XMLID_184_" class="st4" d="M14.1,30.1h3.5c2.5,0,3.9-1.4,3.9-3.2c0-1.9-1.5-3.2-3.7-3.2l-3.5,0V12.2h3.5"/>
	<linearGradient id="XMLID_6_" gradientUnits="userSpaceOnUse" x1="8.1229" y1="19.987" x2="189.9583" y2="19.987">
		<stop  offset="0" style="stop-color:#EF4900"/>
		<stop  offset="1" style="stop-color:#643C68"/>
	</linearGradient>
	<path id="XMLID_183_" class="st5" d="M213.2,12.8c-0.6-1.8-1.5-3.3-2.8-4.6c-1.3-1.3-2.8-2.3-4.6-3c-1.3-0.5-2.6-0.7-4.2-0.8l0,0h0
		l0,0l0,0c-1.6,0-2.9,0.3-4.2,0.8c-1.8,0.6-3.3,1.6-4.6,3c-1.3,1.3-2.2,2.9-2.8,4.6c-1.2,3.6-0.7,7.6-0.7,11.3c0,3.6,0,7.2,0,10.7
		c0,0.2,0,0.4,0.2,0.6c0.1,0.1,0.3,0.1,0.4,0.1c3.9,0,7.8,0,11.8,0c4,0,7.8,0,11.7,0c0.2,0,0.3,0,0.4-0.1c0.2-0.1,0.2-0.4,0.2-0.6
		c0-3.6,0-7.2,0-10.7C213.9,20.4,214.4,16.4,213.2,12.8z"/>
</g>
</svg>
