<?xml version="1.0" encoding="utf-8"?>
<!-- Generator: Adobe Illustrator 23.0.5, SVG Export Plug-In . SVG Version: 6.00 Build 0)  -->
<svg version="1.1" id="Capa_1" xmlns="http://www.w3.org/2000/svg" xmlns:xlink="http://www.w3.org/1999/xlink" x="0px" y="0px"
	 width="30px" height="320px" viewBox="0 0 30 320" style="enable-background:new 0 0 30 320;" xml:space="preserve">
<style type="text/css">
	.st0{display:none;}
	.st1{display:inline;fill:#060507;}
	.st2{fill:#FFFFFF;}
	.st3{fill:#FEFEFE;}
	.st4{filter:url(#Adobe_OpacityMaskFilter);}
	.st5{fill-rule:evenodd;clip-rule:evenodd;fill:#FFFFFF;}
	.st6{mask:url(#a16uyxqa2b_2_);fill-rule:evenodd;clip-rule:evenodd;fill:#FFFFFF;}
	.st7{filter:url(#Adobe_OpacityMaskFilter_1_);}
	.st8{mask:url(#a16uyxqa2b_1_);fill-rule:evenodd;clip-rule:evenodd;}
	.st9{fill-rule:evenodd;clip-rule:evenodd;}
</style>
<g class="st0">
	<rect class="st1" width="30" height="240"/>
</g>
<g id="Capa_1_1_">
	<title>EC449B75-2955-4931-80F5-4DA7D68A5A2E</title>
	<desc>Created with sketchtool.</desc>
	<g id="Symbols">
		<g id="icons_x2F_icClutch">
			<g id="New-C-icon" transform="translate(2.000000, 0.000000)">
				<path id="Shape" class="st2" d="M18.6,23.5c-1.2,1-2.7,1.6-4.3,1.6c-3.7,0-6.3-2.6-6.3-6.2s2.6-6.1,6.3-6.1
					c1.6,0,3.1,0.6,4.3,1.5l0.8,0.7l3.5-3.4L22,10.8c-2.1-1.9-4.9-3-7.8-2.9C7.8,7.8,3,12.4,3,18.8s4.9,11.1,11.3,11.1
					c2.9,0.1,5.7-1,7.9-2.9l0.8-0.8l-3.6-3.4L18.6,23.5z"/>
				<circle id="Oval" class="st2" cx="14.4" cy="19.2" r="3.8"/>
			</g>
		</g>
	</g>
	<path class="st3" d="M23.4,56.8H6.5c-0.8,0-1.5,0.6-1.5,1.4v17.1c0,0.8,0.7,1.4,1.5,1.4h17c0.8,0,1.5-0.6,1.5-1.4V58.2
		C24.9,57.4,24.3,56.8,23.4,56.8z M10.9,73.8h-3v-9.5h3V73.8z M9.4,63c-0.9,0-1.7-0.7-1.7-1.7c0-0.9,0.7-1.7,1.7-1.7
		c0.9,0,1.7,0.7,1.7,1.7C11.2,62.2,10.4,63,9.4,63z M22,73.8h-2.9v-4.6c0-1.1,0-2.5-1.6-2.5s-1.7,1.2-1.7,2.4v4.7h-2.9v-9.6h2.7v1.3
		h0.1C16,64.8,17,64,18.5,64c3,0,3.6,2,3.6,4.5v5.3H22z"/>
</g>
<path class="st2" d="M15,95.5c-5.5,0-10,4.5-10,10s4.5,10,10,10s10-4.5,10-10S20.5,95.5,15,95.5z M21.6,100.1
	c1.2,1.5,1.9,3.3,1.9,5.3c-0.3-0.1-3.1-0.6-5.9-0.3c-0.1-0.1-0.1-0.3-0.2-0.5c-0.2-0.4-0.4-0.9-0.5-1.3
	C19.9,102.1,21.4,100.3,21.6,100.1z M15,96.9c2.2,0,4.1,0.8,5.7,2.1c-0.1,0.2-1.5,1.9-4.5,3.1c-1.4-2.6-2.9-4.7-3.2-5
	C13.6,97,14.3,96.9,15,96.9z M11.3,97.7c0.2,0.3,1.7,2.4,3.2,4.9c-4,1.1-7.5,1.1-7.9,1.1C7.1,101.1,8.9,98.9,11.3,97.7z M6.4,105.5
	c0-0.1,0-0.2,0-0.3c0.4,0,4.5,0.1,8.8-1.2c0.3,0.5,0.5,0.9,0.7,1.5c-0.1,0-0.2,0.1-0.3,0.1c-4.4,1.4-6.7,5.3-6.9,5.6
	C7.3,109.7,6.4,107.7,6.4,105.5z M15,114c-2,0-3.8-0.7-5.3-1.8c0.1-0.3,1.9-3.7,6.7-5.3c0,0,0,0,0.1,0c1.2,3.1,1.7,5.7,1.8,6.5
	C17.3,113.7,16.1,114,15,114z M19.7,112.5c-0.1-0.5-0.5-3-1.7-6.1c2.7-0.4,5,0.3,5.3,0.4C23,109.2,21.7,111.3,19.7,112.5z"/>
<g id="Capa_1_2_">
	<title>EC449B75-2955-4931-80F5-4DA7D68A5A2E</title>
	<desc>Created with sketchtool.</desc>
	<g id="Symbols_1_">
		<g id="icons_x2F_icClutch_1_">
			<g id="New-C-icon_1_" transform="translate(2.000000, 0.000000)">
				<path id="Shape_1_" d="M18.6,147.5c-1.2,1-2.7,1.6-4.3,1.6c-3.7,0-6.3-2.6-6.3-6.2c0-3.6,2.6-6.1,6.3-6.1c1.6,0,3.1,0.6,4.3,1.5
					l0.8,0.7l3.5-3.4l-0.9-0.8c-2.1-1.9-4.9-3-7.8-2.9C7.8,131.8,3,136.4,3,142.8c0,6.4,4.9,11.1,11.3,11.1c2.9,0.1,5.7-1,7.9-2.9
					l0.8-0.8l-3.6-3.4L18.6,147.5z"/>
				<circle id="Oval_1_" cx="14.4" cy="143.2" r="3.8"/>
			</g>
		</g>
	</g>
	<path d="M23.4,180.8H6.5c-0.8,0-1.5,0.6-1.5,1.4v17.1c0,0.8,0.7,1.4,1.5,1.4h17c0.8,0,1.5-0.6,1.5-1.4v-17.1
		C24.9,181.4,24.3,180.8,23.4,180.8z M10.9,197.8h-3v-9.5h3V197.8z M9.4,187c-0.9,0-1.7-0.7-1.7-1.7c0-0.9,0.7-1.7,1.7-1.7
		c0.9,0,1.7,0.7,1.7,1.7C11.2,186.2,10.4,187,9.4,187z M22,197.8h-2.9v-4.6c0-1.1,0-2.5-1.6-2.5s-1.7,1.2-1.7,2.4v4.7h-2.9v-9.6h2.7
		v1.3h0.1c0.3-0.7,1.3-1.5,2.8-1.5c3,0,3.6,2,3.6,4.5v5.3L22,197.8L22,197.8z"/>
</g>
<path d="M15,219.5c-5.5,0-10,4.5-10,10s4.5,10,10,10s10-4.5,10-10S20.5,219.5,15,219.5z M21.6,224.1c1.2,1.5,1.9,3.3,1.9,5.3
	c-0.3-0.1-3.1-0.6-5.9-0.3c-0.1-0.1-0.1-0.3-0.2-0.5c-0.2-0.4-0.4-0.9-0.5-1.3C19.9,226.1,21.4,224.3,21.6,224.1z M15,220.9
	c2.2,0,4.1,0.8,5.7,2.1c-0.1,0.2-1.5,1.9-4.5,3.1c-1.4-2.6-2.9-4.7-3.2-5C13.6,221,14.3,220.9,15,220.9z M11.3,221.7
	c0.2,0.3,1.7,2.4,3.2,4.9c-4,1.1-7.5,1.1-7.9,1.1C7.1,225.1,8.9,222.9,11.3,221.7z M6.4,229.5c0-0.1,0-0.2,0-0.3
	c0.4,0,4.5,0.1,8.8-1.2c0.3,0.5,0.5,0.9,0.7,1.5c-0.1,0-0.2,0.1-0.3,0.1c-4.4,1.4-6.7,5.3-6.9,5.6C7.3,233.7,6.4,231.7,6.4,229.5z
	 M15,238c-2,0-3.8-0.7-5.3-1.8c0.1-0.3,1.9-3.7,6.7-5.3c0,0,0,0,0.1,0c1.2,3.1,1.7,5.7,1.8,6.5C17.3,237.7,16.1,238,15,238z
	 M19.7,236.5c-0.1-0.5-0.5-3-1.7-6.1c2.7-0.4,5,0.3,5.3,0.4C23,233.2,21.7,235.3,19.7,236.5z"/>
<g>
	<g>
		<g>
			<g>
				<g transform="translate(-1000 -2437) translate(0 2368) translate(1000 69)">
					<defs>
						<filter id="Adobe_OpacityMaskFilter" filterUnits="userSpaceOnUse" x="5" y="253.5" width="20" height="19.1">
							<feColorMatrix  type="matrix" values="1 0 0 0 0  0 1 0 0 0  0 0 1 0 0  0 0 0 1 0"/>
						</filter>
					</defs>
					<mask maskUnits="userSpaceOnUse" x="5" y="253.5" width="20" height="19.1" id="a16uyxqa2b_2_">
						<g class="st4">
							<path class="st5" d="M5,253.5h20v19.1H5V253.5z"/>
						</g>
					</mask>
					<path class="st6" d="M11.2,254.9c-2.6,0-4.8,2.2-4.8,4.8v6.8c0,2.6,2.2,4.8,4.8,4.8h7.7c2.6,0,4.8-2.2,4.8-4.8v-6.8
						c0-2.6-2.2-4.8-4.8-4.8L11.2,254.9L11.2,254.9z M18.8,272.6h-7.7c-3.4,0-6.2-2.8-6.2-6.2v-6.8c0-3.4,2.8-6.2,6.2-6.2h7.7
						c3.4,0,6.2,2.8,6.2,6.2v6.8C25,269.8,22.2,272.6,18.8,272.6L18.8,272.6z"/>
				</g>
				<path class="st5" d="M15,258.9c-2.3,0-4.1,1.8-4.1,4.1c0,2.3,1.8,4.1,4.1,4.1c2.3,0,4.1-1.8,4.1-4.1
					C19.1,260.8,17.3,258.9,15,258.9 M15,268.6c-3,0-5.5-2.5-5.5-5.5c0-3,2.5-5.5,5.5-5.5c3,0,5.5,2.5,5.5,5.5S18,268.6,15,268.6
					 M20.4,258.9c-0.6,0-1.1-0.5-1.1-1.1c0-0.6,0.5-1.1,1.1-1.1s1.1,0.5,1.1,1.1C21.5,258.4,21,258.9,20.4,258.9L20.4,258.9z"/>
			</g>
		</g>
	</g>
</g>
<g>
	<g>
		<g>
			<g>
				<g transform="translate(-1000 -2437) translate(0 2368) translate(1000 69)">
					<defs>
						<filter id="Adobe_OpacityMaskFilter_1_" filterUnits="userSpaceOnUse" x="5" y="289.5" width="20" height="19.1">
							<feColorMatrix  type="matrix" values="1 0 0 0 0  0 1 0 0 0  0 0 1 0 0  0 0 0 1 0"/>
						</filter>
					</defs>
					<mask maskUnits="userSpaceOnUse" x="5" y="289.5" width="20" height="19.1" id="a16uyxqa2b_1_">
						<g class="st7">
							<path class="st5" d="M5,289.5h20v19.1H5V289.5z"/>
						</g>
					</mask>
					<path class="st8" d="M11.2,290.9c-2.6,0-4.8,2.2-4.8,4.8v6.8c0,2.6,2.2,4.8,4.8,4.8h7.7c2.6,0,4.8-2.2,4.8-4.8v-6.8
						c0-2.6-2.2-4.8-4.8-4.8L11.2,290.9L11.2,290.9z M18.8,308.6h-7.7c-3.4,0-6.2-2.8-6.2-6.2v-6.8c0-3.4,2.8-6.2,6.2-6.2h7.7
						c3.4,0,6.2,2.8,6.2,6.2v6.8C25,305.8,22.2,308.6,18.8,308.6L18.8,308.6z"/>
				</g>
				<path class="st9" d="M15,294.9c-2.3,0-4.1,1.8-4.1,4.1c0,2.3,1.8,4.1,4.1,4.1c2.3,0,4.1-1.8,4.1-4.1
					C19.1,296.8,17.3,294.9,15,294.9 M15,304.6c-3,0-5.5-2.5-5.5-5.5c0-3,2.5-5.5,5.5-5.5c3,0,5.5,2.5,5.5,5.5S18,304.6,15,304.6
					 M20.4,294.9c-0.6,0-1.1-0.5-1.1-1.1c0-0.6,0.5-1.1,1.1-1.1s1.1,0.5,1.1,1.1C21.5,294.4,21,294.9,20.4,294.9L20.4,294.9z"/>
			</g>
		</g>
	</g>
</g>
</svg>
